<?xml version="1.0" encoding="UTF-8" standalone="no"?>
<!DOCTYPE svg PUBLIC "-//W3C//DTD SVG 1.1//EN"
 "http://www.w3.org/Graphics/SVG/1.1/DTD/svg11.dtd">
<!-- Generated by graphviz version 2.43.0 (0)
 -->
<!-- Title: flowchart Pages: 1 -->
<svg width="858pt" height="984pt"
 viewBox="0.00 0.00 857.60 983.80" xmlns="http://www.w3.org/2000/svg" xmlns:xlink="http://www.w3.org/1999/xlink">
<g id="graph0" class="graph" transform="scale(1 1) rotate(0) translate(4 979.8)">
<title>flowchart</title>
<polygon fill="white" stroke="transparent" points="-4,4 -4,-979.8 853.6,-979.8 853.6,4 -4,4"/>
<!-- p0 -->
<g id="node1" class="node">
<title>p0</title>
<ellipse fill="black" stroke="black" cx="387.6" cy="-826.6" rx="3.6" ry="3.6"/>
<text text-anchor="middle" x="334" y="-834" font-family="Times,serif" font-size="14.00">Channel.fromPath</text>
</g>
<!-- p6 -->
<g id="node2" class="node">
<title>p6</title>
<ellipse fill="none" stroke="black" cx="387.6" cy="-739.6" rx="90.18" ry="18"/>
<text text-anchor="middle" x="387.6" y="-735.9" font-family="Times,serif" font-size="14.00">convert_raw_to_mzdb</text>
</g>
<!-- p0&#45;&gt;p6 -->
<g id="edge1" class="edge">
<title>p0&#45;&gt;p6</title>
<path fill="none" stroke="black" d="M387.6,-822.77C387.6,-814.28 387.6,-788.35 387.6,-767.87"/>
<polygon fill="black" stroke="black" points="391.1,-767.77 387.6,-757.77 384.1,-767.77 391.1,-767.77"/>
<text text-anchor="middle" x="415.1" y="-779.4" font-family="Times,serif" font-size="14.00">input_raw</text>
</g>
<!-- p7 -->
<g id="node12" class="node">
<title>p7</title>
<ellipse fill="none" stroke="black" cx="507.6" cy="-652.6" rx="91.78" ry="18"/>
<text text-anchor="middle" x="507.6" y="-648.9" font-family="Times,serif" font-size="14.00">convert_mzdb_to_mgf</text>
</g>
<!-- p6&#45;&gt;p7 -->
<g id="edge8" class="edge">
<title>p6&#45;&gt;p7</title>
<path fill="none" stroke="black" d="M436.74,-724.33C449.58,-719.13 462.82,-712.32 473.6,-703.6 481.72,-697.03 488.66,-688.02 494.11,-679.46"/>
<polygon fill="black" stroke="black" points="497.15,-681.2 499.25,-670.82 491.13,-677.63 497.15,-681.2"/>
<text text-anchor="middle" x="551.6" y="-692.4" font-family="Times,serif" font-size="14.00">mzdbs_convert_to_mgf</text>
</g>
<!-- p14 -->
<g id="node13" class="node">
<title>p14</title>
<ellipse fill="none" stroke="black" cx="209.6" cy="-522.1" rx="3.5" ry="3.5"/>
<text text-anchor="middle" x="224.6" y="-529.4" font-family="Times,serif" font-size="14.00">collect</text>
</g>
<!-- p6&#45;&gt;p14 -->
<g id="edge9" class="edge">
<title>p6&#45;&gt;p14</title>
<path fill="none" stroke="black" d="M326.22,-726.34C293.78,-716.66 256.12,-699.73 233.6,-670.6 202.09,-629.85 205.02,-563.58 207.92,-535.89"/>
<polygon fill="black" stroke="black" points="211.41,-536.25 209.16,-525.89 204.46,-535.39 211.41,-536.25"/>
<text text-anchor="middle" x="308.6" y="-648.9" font-family="Times,serif" font-size="14.00">mzdbs_proline_exp_design</text>
</g>
<!-- p18 -->
<g id="node14" class="node">
<title>p18</title>
<ellipse fill="none" stroke="black" cx="387.6" cy="-609.1" rx="3.5" ry="3.5"/>
<text text-anchor="middle" x="365.6" y="-616.4" font-family="Times,serif" font-size="14.00">collect</text>
</g>
<!-- p6&#45;&gt;p18 -->
<g id="edge10" class="edge">
<title>p6&#45;&gt;p18</title>
<path fill="none" stroke="black" d="M387.6,-721.54C387.6,-695.39 387.6,-646.01 387.6,-622.78"/>
<polygon fill="black" stroke="black" points="391.1,-622.69 387.6,-612.69 384.1,-622.69 391.1,-622.69"/>
<text text-anchor="middle" x="428.6" y="-692.4" font-family="Times,serif" font-size="14.00">mzdbs_proline</text>
</g>
<!-- p1 -->
<g id="node3" class="node">
<title>p1</title>
<ellipse fill="black" stroke="black" cx="560.6" cy="-957.2" rx="3.6" ry="3.6"/>
<text text-anchor="middle" x="507" y="-964.6" font-family="Times,serif" font-size="14.00">Channel.fromPath</text>
</g>
<!-- p2 -->
<g id="node4" class="node">
<title>p2</title>
<ellipse fill="none" stroke="black" cx="560.6" cy="-899.1" rx="3.5" ry="3.5"/>
<text text-anchor="middle" x="546.1" y="-906.4" font-family="Times,serif" font-size="14.00">into</text>
</g>
<!-- p1&#45;&gt;p2 -->
<g id="edge2" class="edge">
<title>p1&#45;&gt;p2</title>
<path fill="none" stroke="black" d="M560.6,-953.49C560.6,-946.26 560.6,-926.13 560.6,-912.76"/>
<polygon fill="black" stroke="black" points="564.1,-912.65 560.6,-902.65 557.1,-912.65 564.1,-912.65"/>
<text text-anchor="middle" x="591.1" y="-924.4" font-family="Times,serif" font-size="14.00">input_fasta</text>
</g>
<!-- p23 -->
<g id="node5" class="node">
<title>p23</title>
<ellipse fill="none" stroke="black" cx="156.6" cy="-72.6" rx="55.79" ry="18"/>
<text text-anchor="middle" x="156.6" y="-68.9" font-family="Times,serif" font-size="14.00">run_final_qc</text>
</g>
<!-- p2&#45;&gt;p23 -->
<g id="edge3" class="edge">
<title>p2&#45;&gt;p23</title>
<path fill="none" stroke="black" d="M557.12,-898.03C510.7,-897.1 15.6,-885.8 15.6,-827.6 15.6,-827.6 15.6,-827.6 15.6,-158.6 15.6,-117.49 60.1,-95.75 99.1,-84.58"/>
<polygon fill="black" stroke="black" points="100.11,-87.93 108.86,-81.97 98.3,-81.17 100.11,-87.93"/>
<text text-anchor="middle" x="38.6" y="-485.4" font-family="Times,serif" font-size="14.00">fasta_qc</text>
</g>
<!-- p8 -->
<g id="node6" class="node">
<title>p8</title>
<ellipse fill="none" stroke="black" cx="568.6" cy="-826.6" rx="91.78" ry="18"/>
<text text-anchor="middle" x="568.6" y="-822.9" font-family="Times,serif" font-size="14.00">create_decoy_database</text>
</g>
<!-- p2&#45;&gt;p8 -->
<g id="edge4" class="edge">
<title>p2&#45;&gt;p8</title>
<path fill="none" stroke="black" d="M560.52,-895.51C560.38,-889.63 560.21,-874.85 561.6,-862.6 561.89,-860.01 562.28,-857.33 562.72,-854.66"/>
<polygon fill="black" stroke="black" points="566.2,-855.07 564.6,-844.6 559.32,-853.78 566.2,-855.07"/>
<text text-anchor="middle" x="613.6" y="-866.4" font-family="Times,serif" font-size="14.00">fasta_create_decoy</text>
</g>
<!-- p3 -->
<g id="node7" class="node">
<title>p3</title>
<ellipse fill="black" stroke="black" cx="687.6" cy="-826.6" rx="1.8" ry="1.8"/>
</g>
<!-- p2&#45;&gt;p3 -->
<g id="edge5" class="edge">
<title>p2&#45;&gt;p3</title>
<path fill="none" stroke="black" d="M563.91,-897.86C579.93,-896.65 649.21,-890.71 665.6,-877.6 677.82,-867.83 683.42,-849.89 685.87,-838.37"/>
<polygon fill="black" stroke="black" points="689.32,-838.91 687.51,-828.47 682.42,-837.77 689.32,-838.91"/>
<text text-anchor="middle" x="719.1" y="-866.4" font-family="Times,serif" font-size="14.00">fasta_searchgui</text>
</g>
<!-- p25 -->
<g id="node25" class="node">
<title>p25</title>
<ellipse fill="black" stroke="black" cx="114.6" cy="-1.8" rx="1.8" ry="1.8"/>
</g>
<!-- p23&#45;&gt;p25 -->
<g id="edge33" class="edge">
<title>p23&#45;&gt;p25</title>
<path fill="none" stroke="black" d="M131.83,-56.12C125.39,-50.78 119.24,-44.2 115.6,-36.6 112.23,-29.56 112.09,-20.71 112.73,-13.83"/>
<polygon fill="black" stroke="black" points="116.23,-14.13 114.38,-3.7 109.32,-13.01 116.23,-14.13"/>
<text text-anchor="middle" x="146.1" y="-25.4" font-family="Times,serif" font-size="14.00">parameters</text>
</g>
<!-- p24 -->
<g id="node26" class="node">
<title>p24</title>
<ellipse fill="black" stroke="black" cx="198.6" cy="-1.8" rx="1.8" ry="1.8"/>
</g>
<!-- p23&#45;&gt;p24 -->
<g id="edge34" class="edge">
<title>p23&#45;&gt;p24</title>
<path fill="none" stroke="black" d="M166.98,-54.59C175.08,-41.32 186.05,-23.37 192.7,-12.46"/>
<polygon fill="black" stroke="black" points="195.89,-13.95 198.12,-3.59 189.92,-10.31 195.89,-13.95"/>
<text text-anchor="middle" x="220.1" y="-25.4" font-family="Times,serif" font-size="14.00">benchmarks</text>
</g>
<!-- p9 -->
<g id="node16" class="node">
<title>p9</title>
<ellipse fill="none" stroke="black" cx="643.6" cy="-739.6" rx="3.5" ry="3.5"/>
<text text-anchor="middle" x="617.1" y="-746.9" font-family="Times,serif" font-size="14.00">ifEmpty</text>
</g>
<!-- p8&#45;&gt;p9 -->
<g id="edge12" class="edge">
<title>p8&#45;&gt;p9</title>
<path fill="none" stroke="black" d="M583.42,-808.81C598.82,-791.35 622.39,-764.63 634.98,-750.37"/>
<polygon fill="black" stroke="black" points="637.71,-752.57 641.7,-742.75 632.46,-747.94 637.71,-752.57"/>
<text text-anchor="middle" x="657.6" y="-779.4" font-family="Times,serif" font-size="14.00">fasta_with_decoy</text>
</g>
<!-- p4 -->
<g id="node8" class="node">
<title>p4</title>
<ellipse fill="black" stroke="black" cx="103.6" cy="-565.6" rx="3.6" ry="3.6"/>
<text text-anchor="middle" x="50" y="-573" font-family="Times,serif" font-size="14.00">Channel.fromPath</text>
</g>
<!-- p15 -->
<g id="node9" class="node">
<title>p15</title>
<ellipse fill="none" stroke="black" cx="148.6" cy="-489.1" rx="3.5" ry="3.5"/>
<text text-anchor="middle" x="122.1" y="-496.4" font-family="Times,serif" font-size="14.00">ifEmpty</text>
</g>
<!-- p4&#45;&gt;p15 -->
<g id="edge6" class="edge">
<title>p4&#45;&gt;p15</title>
<path fill="none" stroke="black" d="M102.43,-562.07C99.01,-554.29 89.89,-530.3 99.6,-514.6 107.32,-502.11 123.55,-495.77 135.21,-492.71"/>
<polygon fill="black" stroke="black" points="136.13,-496.1 145.17,-490.59 134.66,-489.25 136.13,-496.1"/>
<text text-anchor="middle" x="148.1" y="-518.4" font-family="Times,serif" font-size="14.00">input_exp_design</text>
</g>
<!-- p16 -->
<g id="node21" class="node">
<title>p16</title>
<ellipse fill="none" stroke="black" cx="209.6" cy="-420.6" rx="94.48" ry="18"/>
<text text-anchor="middle" x="209.6" y="-416.9" font-family="Times,serif" font-size="14.00">set_proline_exp_design</text>
</g>
<!-- p15&#45;&gt;p16 -->
<g id="edge20" class="edge">
<title>p15&#45;&gt;p16</title>
<path fill="none" stroke="black" d="M150.63,-485.89C156.3,-479.71 172.81,-461.71 186.92,-446.32"/>
<polygon fill="black" stroke="black" points="189.83,-448.33 194.01,-438.59 184.68,-443.59 189.83,-448.33"/>
</g>
<!-- p5 -->
<g id="node10" class="node">
<title>p5</title>
<ellipse fill="black" stroke="black" cx="459.6" cy="-420.6" rx="3.6" ry="3.6"/>
<text text-anchor="middle" x="406" y="-428" font-family="Times,serif" font-size="14.00">Channel.fromPath</text>
</g>
<!-- p19 -->
<g id="node11" class="node">
<title>p19</title>
<ellipse fill="none" stroke="black" cx="424.6" cy="-333.6" rx="51.99" ry="18"/>
<text text-anchor="middle" x="424.6" y="-329.9" font-family="Times,serif" font-size="14.00">run_proline</text>
</g>
<!-- p5&#45;&gt;p19 -->
<g id="edge7" class="edge">
<title>p5&#45;&gt;p19</title>
<path fill="none" stroke="black" d="M458.44,-416.77C454.89,-408.17 443.97,-381.64 435.48,-361.02"/>
<polygon fill="black" stroke="black" points="438.71,-359.68 431.67,-351.77 432.24,-362.35 438.71,-359.68"/>
<text text-anchor="middle" x="501.1" y="-373.4" font-family="Times,serif" font-size="14.00">input_proline_param</text>
</g>
<!-- p20 -->
<g id="node22" class="node">
<title>p20</title>
<ellipse fill="none" stroke="black" cx="235.6" cy="-246.6" rx="57.69" ry="18"/>
<text text-anchor="middle" x="235.6" y="-242.9" font-family="Times,serif" font-size="14.00">run_polystest</text>
</g>
<!-- p19&#45;&gt;p20 -->
<g id="edge26" class="edge">
<title>p19&#45;&gt;p20</title>
<path fill="none" stroke="black" d="M394.23,-318.94C362.38,-304.62 312.11,-282.01 276.71,-266.09"/>
<polygon fill="black" stroke="black" points="277.71,-262.7 267.15,-261.79 274.84,-269.08 277.71,-262.7"/>
<text text-anchor="middle" x="373.1" y="-286.4" font-family="Times,serif" font-size="14.00">proline_out</text>
</g>
<!-- p11 -->
<g id="node15" class="node">
<title>p11</title>
<ellipse fill="none" stroke="black" cx="573.6" cy="-565.6" rx="87.18" ry="18"/>
<text text-anchor="middle" x="573.6" y="-561.9" font-family="Times,serif" font-size="14.00">run_searchgui_search</text>
</g>
<!-- p7&#45;&gt;p11 -->
<g id="edge11" class="edge">
<title>p7&#45;&gt;p11</title>
<path fill="none" stroke="black" d="M510.62,-634.61C513.09,-624.3 517.38,-611.31 524.6,-601.6 527.99,-597.04 532.15,-592.83 536.6,-589.04"/>
<polygon fill="black" stroke="black" points="539.06,-591.57 544.82,-582.68 534.77,-586.03 539.06,-591.57"/>
<text text-anchor="middle" x="568.1" y="-605.4" font-family="Times,serif" font-size="14.00">mgfs_searchgui</text>
</g>
<!-- p14&#45;&gt;p16 -->
<g id="edge19" class="edge">
<title>p14&#45;&gt;p16</title>
<path fill="none" stroke="black" d="M209.6,-518.23C209.6,-508.18 209.6,-473.86 209.6,-448.97"/>
<polygon fill="black" stroke="black" points="213.1,-448.65 209.6,-438.65 206.1,-448.65 213.1,-448.65"/>
</g>
<!-- p18&#45;&gt;p19 -->
<g id="edge25" class="edge">
<title>p18&#45;&gt;p19</title>
<path fill="none" stroke="black" d="M387.97,-605.39C391.01,-582.89 412.21,-426.15 420.9,-361.94"/>
<polygon fill="black" stroke="black" points="424.41,-362.14 422.28,-351.77 417.47,-361.21 424.41,-362.14"/>
</g>
<!-- p12 -->
<g id="node18" class="node">
<title>p12</title>
<ellipse fill="none" stroke="black" cx="636.6" cy="-489.1" rx="3.5" ry="3.5"/>
<text text-anchor="middle" x="614.6" y="-496.4" font-family="Times,serif" font-size="14.00">collect</text>
</g>
<!-- p11&#45;&gt;p12 -->
<g id="edge15" class="edge">
<title>p11&#45;&gt;p12</title>
<path fill="none" stroke="black" d="M598.2,-548.2C605.06,-542.83 612.12,-536.47 617.6,-529.6 624.11,-521.45 629.09,-510.7 632.32,-502.48"/>
<polygon fill="black" stroke="black" points="635.7,-503.42 635.77,-492.83 629.11,-501.07 635.7,-503.42"/>
<text text-anchor="middle" x="737.6" y="-518.4" font-family="Times,serif" font-size="14.00">search_engine_result_files_set_inputfiles</text>
</g>
<!-- p17 -->
<g id="node19" class="node">
<title>p17</title>
<ellipse fill="none" stroke="black" cx="426.6" cy="-460.1" rx="3.5" ry="3.5"/>
<text text-anchor="middle" x="404.6" y="-467.4" font-family="Times,serif" font-size="14.00">collect</text>
</g>
<!-- p11&#45;&gt;p17 -->
<g id="edge16" class="edge">
<title>p11&#45;&gt;p17</title>
<path fill="none" stroke="black" d="M499.61,-556.03C466.88,-550.57 433.53,-542.12 423.6,-529.6 410.88,-513.57 416.59,-488.19 421.72,-473.24"/>
<polygon fill="black" stroke="black" points="425.12,-474.15 425.47,-463.57 418.59,-471.62 425.12,-474.15"/>
<text text-anchor="middle" x="518.6" y="-518.4" font-family="Times,serif" font-size="14.00">search_engine_result_files_proline</text>
</g>
<!-- p10 -->
<g id="node17" class="node">
<title>p10</title>
<ellipse fill="none" stroke="black" cx="725.6" cy="-652.6" rx="108.58" ry="18"/>
<text text-anchor="middle" x="725.6" y="-648.9" font-family="Times,serif" font-size="14.00">create_searchgui_paramfile</text>
</g>
<!-- p9&#45;&gt;p10 -->
<g id="edge13" class="edge">
<title>p9&#45;&gt;p10</title>
<path fill="none" stroke="black" d="M645.63,-736.5C653.35,-728.49 681.53,-699.28 702.26,-677.79"/>
<polygon fill="black" stroke="black" points="704.82,-680.19 709.24,-670.56 699.78,-675.33 704.82,-680.19"/>
</g>
<!-- p10&#45;&gt;p11 -->
<g id="edge14" class="edge">
<title>p10&#45;&gt;p11</title>
<path fill="none" stroke="black" d="M696.29,-635.21C672.06,-621.66 637.49,-602.33 611.22,-587.64"/>
<polygon fill="black" stroke="black" points="612.74,-584.48 602.3,-582.65 609.32,-590.59 612.74,-584.48"/>
<text text-anchor="middle" x="705.6" y="-605.4" font-family="Times,serif" font-size="14.00">searchgui_param</text>
</g>
<!-- p13 -->
<g id="node20" class="node">
<title>p13</title>
<ellipse fill="none" stroke="black" cx="610.6" cy="-420.6" rx="87.18" ry="18"/>
<text text-anchor="middle" x="610.6" y="-416.9" font-family="Times,serif" font-size="14.00">set_proline_inputfiles</text>
</g>
<!-- p12&#45;&gt;p13 -->
<g id="edge17" class="edge">
<title>p12&#45;&gt;p13</title>
<path fill="none" stroke="black" d="M635.61,-485.57C633.2,-479.41 626.79,-463.01 621.06,-448.35"/>
<polygon fill="black" stroke="black" points="624.16,-446.68 617.26,-438.64 617.64,-449.23 624.16,-446.68"/>
</g>
<!-- p17&#45;&gt;p19 -->
<g id="edge24" class="edge">
<title>p17&#45;&gt;p19</title>
<path fill="none" stroke="black" d="M426.56,-456.5C426.37,-444.52 425.55,-393.82 425.04,-361.7"/>
<polygon fill="black" stroke="black" points="428.53,-361.55 424.87,-351.61 421.53,-361.66 428.53,-361.55"/>
</g>
<!-- p13&#45;&gt;p19 -->
<g id="edge18" class="edge">
<title>p13&#45;&gt;p19</title>
<path fill="none" stroke="black" d="M598.17,-402.37C589.41,-391.43 576.74,-377.83 562.6,-369.6 538.46,-355.55 508.74,-347.08 483.08,-342.01"/>
<polygon fill="black" stroke="black" points="483.56,-338.54 473.09,-340.16 482.29,-345.42 483.56,-338.54"/>
<text text-anchor="middle" x="614.1" y="-373.4" font-family="Times,serif" font-size="14.00">import_files</text>
</g>
<!-- p16&#45;&gt;p19 -->
<g id="edge21" class="edge">
<title>p16&#45;&gt;p19</title>
<path fill="none" stroke="black" d="M216.82,-402.48C222.45,-391.3 231.38,-377.37 243.6,-369.6 286.14,-342.54 306.19,-361.64 355.6,-351.6 361.71,-350.36 368.1,-348.94 374.41,-347.48"/>
<polygon fill="black" stroke="black" points="375.31,-350.86 384.23,-345.14 373.69,-344.05 375.31,-350.86"/>
<text text-anchor="middle" x="309.6" y="-373.4" font-family="Times,serif" font-size="14.00">exp_design_file_proline</text>
</g>
<!-- p16&#45;&gt;p20 -->
<g id="edge22" class="edge">
<title>p16&#45;&gt;p20</title>
<path fill="none" stroke="black" d="M211.13,-402.24C213.07,-381.54 216.74,-345.93 221.6,-315.6 223.79,-301.93 226.83,-286.84 229.52,-274.36"/>
<polygon fill="black" stroke="black" points="232.95,-275.09 231.67,-264.57 226.11,-273.59 232.95,-275.09"/>
<text text-anchor="middle" x="292.6" y="-329.9" font-family="Times,serif" font-size="14.00">exp_design_file_polystest</text>
</g>
<!-- p21 -->
<g id="node23" class="node">
<title>p21</title>
<ellipse fill="none" stroke="black" cx="147.6" cy="-159.6" rx="71.49" ry="18"/>
<text text-anchor="middle" x="147.6" y="-155.9" font-family="Times,serif" font-size="14.00">convert_standard</text>
</g>
<!-- p16&#45;&gt;p21 -->
<g id="edge23" class="edge">
<title>p16&#45;&gt;p21</title>
<path fill="none" stroke="black" d="M190.67,-402.88C167.76,-381.24 130.43,-341.13 115.6,-297.6 102.78,-259.96 119.21,-214.79 132.87,-186.88"/>
<polygon fill="black" stroke="black" points="136.09,-188.27 137.53,-177.78 129.86,-185.08 136.09,-188.27"/>
<text text-anchor="middle" x="168.6" y="-286.4" font-family="Times,serif" font-size="14.00">exp_design_file_qc</text>
</g>
<!-- p20&#45;&gt;p21 -->
<g id="edge27" class="edge">
<title>p20&#45;&gt;p21</title>
<path fill="none" stroke="black" d="M183.43,-238.64C166.64,-233.65 149.77,-225.13 139.6,-210.6 134.92,-203.92 134.69,-195.51 136.29,-187.5"/>
<polygon fill="black" stroke="black" points="139.7,-188.31 139.1,-177.74 132.97,-186.38 139.7,-188.31"/>
<text text-anchor="middle" x="190.1" y="-199.4" font-family="Times,serif" font-size="14.00">polystest_prot_out</text>
</g>
<!-- p20&#45;&gt;p21 -->
<g id="edge28" class="edge">
<title>p20&#45;&gt;p21</title>
<path fill="none" stroke="black" d="M242.6,-228.44C245.62,-218.07 247.15,-205.07 240.6,-195.6 234.21,-186.37 225.06,-179.57 214.96,-174.56"/>
<polygon fill="black" stroke="black" points="216.05,-171.22 205.48,-170.45 213.26,-177.64 216.05,-171.22"/>
<text text-anchor="middle" x="295.1" y="-199.4" font-family="Times,serif" font-size="14.00">polystest_pep_out</text>
</g>
<!-- p21&#45;&gt;p23 -->
<g id="edge29" class="edge">
<title>p21&#45;&gt;p23</title>
<path fill="none" stroke="black" d="M149.42,-141.4C150.65,-129.76 152.31,-114.15 153.72,-100.84"/>
<polygon fill="black" stroke="black" points="157.21,-101.09 154.78,-90.78 150.25,-100.35 157.21,-101.09"/>
<text text-anchor="middle" x="187.6" y="-112.4" font-family="Times,serif" font-size="14.00">stdprotquant</text>
</g>
<!-- p21&#45;&gt;p23 -->
<g id="edge30" class="edge">
<title>p21&#45;&gt;p23</title>
<path fill="none" stroke="black" d="M197.15,-146.42C208.35,-141.26 218.91,-133.94 225.6,-123.6 234.77,-109.43 222.06,-97.96 205.15,-89.59"/>
<polygon fill="black" stroke="black" points="206.57,-86.4 196.02,-85.51 203.71,-92.79 206.57,-86.4"/>
<text text-anchor="middle" x="262.6" y="-112.4" font-family="Times,serif" font-size="14.00">stdpepquant</text>
</g>
<!-- p21&#45;&gt;p23 -->
<g id="edge31" class="edge">
<title>p21&#45;&gt;p23</title>
<path fill="none" stroke="black" d="M95.72,-147.1C71.35,-139.1 50.1,-126.6 62.6,-108.6 70.68,-96.98 83.1,-89.21 96.29,-84.01"/>
<polygon fill="black" stroke="black" points="97.67,-87.24 105.99,-80.67 95.39,-80.62 97.67,-87.24"/>
<text text-anchor="middle" x="105.1" y="-112.4" font-family="Times,serif" font-size="14.00">std_exp_design</text>
</g>
<!-- p22 -->
<g id="node24" class="node">
<title>p22</title>
<ellipse fill="black" stroke="black" cx="336.6" cy="-159.6" rx="3.6" ry="3.6"/>
</g>
<!-- p22&#45;&gt;p23 -->
<g id="edge32" class="edge">
<title>p22&#45;&gt;p23</title>
<path fill="none" stroke="black" d="M335.39,-155.8C331.53,-147.25 318.66,-121.28 299.6,-108.6 276.1,-92.97 246.28,-84.32 219.96,-79.52"/>
<polygon fill="black" stroke="black" points="220.5,-76.07 210.06,-77.87 219.34,-82.97 220.5,-76.07"/>
<text text-anchor="middle" x="326.1" y="-112.4" font-family="Times,serif" font-size="14.00">foo</text>
</g>
</g>
</svg>
